Stairs_down_RAD
version=1
nRows=58
nColumns=18
inDegrees=no

Units are S.I. units (second, meters, Newtons, ...)
Angles are in degrees.

endheader
time	pelvis_tilt	pelvis_list	pelvis_rotation	pelvis_tx	pelvis_ty	pelvis_tz	hip_flexion_r	hip_adduction_r	hip_rotation_r	knee_angle_r	ankle_angle_r	hip_flexion_l	hip_adduction_l	hip_rotation_l	knee_angle_l	ankle_angle_l	lumbar_extension
2.067	-0.007079225	0.051395927	-0.001075147	0.88529718	1.11718173	0.0054469	0.522324112	-0.062084194	0	-0.711839793	-0.449834312	0.005681552	0.188362327	0	-0.418518234	0.25423717	-0.0872665
2.075	-0.003227522	0.050950275	0.005933341	0.89305232	1.11327484	0.00524371	0.487187008	-0.054641789	0	-0.62832737	-0.492897068	-0.002517786	0.186900482	0	-0.433854946	0.27817625	-0.0872665
2.083	0.000463463	0.050930735	0.013606649	0.90098274	1.10898993	0.00486991	0.453516015	-0.047802717	0	-0.551573825	-0.52835069	-0.009466204	0.185533265	0	-0.451409547	0.303429846	-0.0872665
2.092	0.00409694	0.0513614	0.019898055	0.90884288	1.10434508	0.00452325	0.422155289	-0.041086747	0	-0.482175648	-0.553023608	-0.01549299	0.184779995	0	-0.470881607	0.330531302	-0.0872665
2.1	0.006670944	0.052595355	0.02521565	0.916416	1.09927872	0.00412862	0.394079884	-0.035097372	0	-0.421117384	-0.565995616	-0.018351927	0.185144691	0	-0.493808351	0.356719726	-0.0872665
2.108	0.00875837	0.054533753	0.029529561	0.92379052	1.0938787	0.00361153	0.369324403	-0.029907916	0	-0.368999048	-0.578177191	-0.018606857	0.186901691	0	-0.520105934	0.380959115	-0.0872665
2.117	0.011726908	0.05666724	0.033345301	0.93139907	1.08826595	0.00291934	0.345646223	-0.025599238	0	-0.325202181	-0.598017541	-0.0180081	0.189274481	0	-0.550410338	0.404516391	-0.0872665
2.125	0.014411794	0.058970582	0.03655624	0.93893955	1.08218782	0.00212053	0.324721919	-0.021966988	0	-0.291284514	-0.621609858	-0.015286014	0.192180884	0	-0.583819019	0.427464734	-0.0872665
2.133	0.016372133	0.060774666	0.040567436	0.94600568	1.07572819	0.00148805	0.306049308	-0.017433679	0	-0.265094972	-0.641852139	-0.008317192	0.193879076	0	-0.622929529	0.446013865	-0.0872665
2.142	0.018450112	0.06177839	0.047123286	0.95280546	1.06902086	0.00085083	0.288501661	-0.011919839	0	-0.246980033	-0.653470105	0.002481445	0.193965724	0	-0.669644602	0.457809368	-0.0872665
2.15	0.017776006	0.062553156	0.055363225	0.9592234	1.06173321	-0.00004136	0.276286464	-0.00674263	0	-0.236588863	-0.6692198	0.019990704	0.194178925	0	-0.72319717	0.470276434	-0.0872665
2.158	0.017598828	0.063166815	0.064847501	0.96577827	1.05408134	-0.00098913	0.263927715	-0.001524927	0	-0.23314183	-0.67349111	0.039133475	0.193693399	0	-0.780284471	0.475056399	-0.0872665
2.167	0.017260897	0.062952716	0.073858035	0.97188841	1.04631803	-0.00169049	0.254649154	0.004019473	0	-0.24042101	-0.653688898	0.062023094	0.192345497	0	-0.841758016	0.478387807	-0.0872665
2.175	0.016704908	0.062984835	0.081225936	0.97780324	1.03791242	-0.00230585	0.250567087	0.00808085	0	-0.263408556	-0.594035293	0.087438971	0.191585963	0	-0.906438467	0.479344673	-0.0872665
2.183	0.016765739	0.06188245	0.089984076	0.98396884	1.02952166	-0.00302474	0.245530648	0.010102096	0	-0.289814049	-0.487536818	0.111679515	0.18814376	0	-0.969205101	0.473349839	-0.0872665
2.192	0.017338047	0.05934066	0.100345609	0.99022386	1.02076817	-0.00340075	0.241200898	0.013542538	0	-0.318587878	-0.387093529	0.135918105	0.181115261	0	-1.031770108	0.466484965	-0.0872665
2.2	0.018273609	0.0558716	0.110345735	0.99645436	1.01200422	-0.00348819	0.238229266	0.019730203	0	-0.341084268	-0.316849768	0.159951263	0.171978821	0	-1.091939533	0.458218832	-0.0872665
2.208	0.018894051	0.051698043	0.119680491	1.0023104	1.00299752	-0.00339894	0.239010944	0.026820411	0	-0.365880471	-0.250864051	0.185147049	0.161911839	0	-1.150919689	0.454096778	-0.0872665
2.217	0.019027481	0.048041477	0.12648746	1.00774217	0.99411144	-0.00316826	0.244112421	0.032938472	0	-0.395647357	-0.184955012	0.209782383	0.152386178	0	-1.203748508	0.454721082	-0.0872665
2.225	0.01925156	0.043673596	0.130936736	1.01276306	0.98565982	-0.00258103	0.250182244	0.040647241	0	-0.425337099	-0.124714668	0.233737194	0.140415919	0	-1.249706216	0.453221391	-0.0872665
2.233	0.01953505	0.037984517	0.135887742	1.01748763	0.97790005	-0.00180635	0.254462777	0.050863822	0	-0.449601088	-0.071686053	0.258521384	0.125781083	0	-1.292326894	0.450149624	-0.0872665
2.242	0.020658359	0.032617903	0.1375804	1.02228594	0.97097135	-0.00098724	0.256813746	0.060897327	0	-0.470188521	-0.023859223	0.280331202	0.110882353	0	-1.329413249	0.451229108	-0.0872665
2.25	0.023100436	0.027723245	0.138151491	1.02736154	0.9651466	-0.00015012	0.256698194	0.070186283	0	-0.488149876	0.016895374	0.298759251	0.095154368	0	-1.36100532	0.451889731	-0.0872665
2.258	0.02532913	0.022886301	0.137762074	1.03209389	0.96020737	0.00075267	0.257641909	0.079409213	0	-0.505360509	0.049201534	0.317372609	0.079049716	0	-1.389535579	0.452915704	-0.0872665
2.267	0.026775525	0.019213372	0.135486023	1.03634381	0.95594274	0.00157712	0.261569711	0.087223134	0	-0.525427243	0.078053072	0.336136908	0.064684487	0	-1.412605928	0.450122281	-0.0872665
2.275	0.028281151	0.015488998	0.134480129	1.04054714	0.95234116	0.00243181	0.263711237	0.09493305	0	-0.542094892	0.101020264	0.35429662	0.049182946	0	-1.431806983	0.444836292	-0.0872665
2.283	0.028554586	0.013466533	0.131960238	1.0446625	0.9490139	0.00300964	0.267239782	0.099822827	0	-0.559355452	0.127110157	0.371737063	0.036578688	0	-1.446374327	0.439806754	-0.0872665
2.292	0.029475296	0.010915663	0.129409579	1.04921262	0.94644047	0.00374432	0.2655845	0.105652869	0	-0.568193814	0.147570854	0.386080621	0.0224892	0	-1.456124028	0.438831333	-0.0872665
2.3	0.02975284	0.009142456	0.126350967	1.05365992	0.9445721	0.0042986	0.260527638	0.110300368	0	-0.570103459	0.164140119	0.399731561	0.01012084	0	-1.461192745	0.437458918	-0.0872665
2.308	0.029069383	0.007394774	0.122365471	1.05788501	0.94318364	0.00475871	0.254065334	0.114611436	0	-0.56701536	0.176538246	0.413404417	-0.001611242	0	-1.461524604	0.434298057	-0.0872665
2.317	0.028593629	0.007201365	0.1176265	1.06214093	0.9422957	0.00471751	0.246915874	0.116305759	0	-0.5639371	0.192005818	0.424859838	-0.009864525	0	-1.456143501	0.425116013	-0.0872665
2.325	0.028211074	0.00658075	0.113720165	1.06625756	0.94212606	0.00469637	0.239321638	0.118130374	0	-0.558800354	0.197012448	0.434648364	-0.018172388	0	-1.446314104	0.423184855	-0.0872665
2.333	0.027270514	0.007072871	0.107439257	1.06993532	0.94241893	0.00447911	0.235410196	0.118036792	0	-0.558252409	0.198296356	0.442688194	-0.022953114	0	-1.431846546	0.422413703	-0.0872665
2.342	0.029685486	0.008549557	0.101099385	1.07442662	0.94373687	0.0039624	0.222891076	0.116548427	0	-0.548930646	0.201543005	0.442821971	-0.026257178	0	-1.410239282	0.409413401	-0.0872665
2.35	0.029821675	0.010361041	0.094596833	1.07860363	0.94526369	0.00326794	0.214773055	0.113815027	0	-0.542599304	0.200661247	0.444291387	-0.027540272	0	-1.385214516	0.400365135	-0.0872665
2.358	0.029685515	0.012776722	0.086179777	1.08249764	0.94728393	0.00251045	0.208513678	0.109885955	0	-0.540021816	0.19393179	0.443815577	-0.026959658	0	-1.355326833	0.389387133	-0.0872665
2.367	0.029246794	0.015736047	0.0769216	1.08598517	0.94946003	0.00157086	0.203832724	0.104425557	0	-0.538762692	0.184893706	0.443006135	-0.025071421	0	-1.322101882	0.377522149	-0.0872665
2.375	0.028754837	0.018779261	0.067115943	1.08946517	0.95191112	0.00052839	0.198013202	0.098243654	0	-0.533448744	0.174453428	0.440997882	-0.022828652	0	-1.284770284	0.366339839	-0.0872665
2.383	0.0280342	0.021277324	0.0568398	1.09299089	0.95461202	-0.00030579	0.190979753	0.09306142	0	-0.52466255	0.162254315	0.437699326	-0.021573573	0	-1.243882106	0.355301786	-0.0872665
2.392	0.027144422	0.023806329	0.045782252	1.09657146	0.95745741	-0.00104698	0.184229251	0.08767588	0	-0.516097967	0.147896941	0.4328831	-0.020607812	0	-1.20003893	0.34147532	-0.0872665
2.4	0.026418154	0.026703098	0.034520989	1.10020163	0.96048432	-0.00181421	0.177177286	0.081671301	0	-0.507041801	0.132298079	0.425931696	-0.019213332	0	-1.152983804	0.325991105	-0.0872665
2.408	0.025238834	0.030285703	0.023530578	1.10357684	0.96352417	-0.00271252	0.171698238	0.074821343	0	-0.499499403	0.119708546	0.418099727	-0.016520444	0	-1.102316473	0.310477229	-0.0872665
2.417	0.024464273	0.032471377	0.012444649	1.10700289	0.96665968	-0.00338739	0.162344037	0.069860262	0	-0.484657766	0.103724693	0.409502912	-0.016156948	0	-1.048852696	0.287989813	-0.0872665
2.425	0.022991882	0.035101168	-0.000176141	1.11019972	0.96953062	-0.00407346	0.155162893	0.064079361	0	-0.472077772	0.089242008	0.400188449	-0.015039301	0	-0.994037849	0.267409058	-0.0872665
2.433	0.021079422	0.038310425	-0.014734852	1.11325361	0.97209222	-0.00485528	0.1514471	0.057417609	0	-0.464817389	0.078986028	0.389865762	-0.012586225	0	-0.939694184	0.250292365	-0.0872665
2.442	0.02008267	0.040253604	-0.0284566	1.11668989	0.97486141	-0.00540341	0.143165965	0.05257843	0	-0.450377712	0.062259707	0.377695452	-0.011518432	0	-0.883189431	0.224762287	-0.0872665
2.45	0.018674036	0.042679092	-0.04322099	1.11998757	0.97724271	-0.0060447	0.137243003	0.046891482	0	-0.439745698	0.049359789	0.365562274	-0.009190938	0	-0.825181705	0.20513348	-0.0872665
2.458	0.017532162	0.045801203	-0.058991355	1.12321191	0.97941888	-0.00681698	0.132590583	0.0401115	0	-0.431567167	0.038732174	0.352156683	-0.005340959	0	-0.766484396	0.186801913	-0.0872665
2.467	0.01633046	0.048382911	-0.076549304	1.12623311	0.98140403	-0.00741041	0.128755446	0.034109622	0	-0.423728081	0.028499908	0.338300665	-0.002126821	0	-0.707691356	0.168000156	-0.0872665
2.475	0.014094845	0.05024369	-0.094476402	1.12904071	0.98301031	-0.00784785	0.126749241	0.029162708	0	-0.416783446	0.018954797	0.32625273	-2.99987E-05	0	-0.650866639	0.148029868	-0.0872665
2.483	0.01219213	0.052278815	-0.113236164	1.13208298	0.98420719	-0.00832667	0.125799843	0.023842482	0	-0.413203788	0.011967191	0.313987245	0.002448155	0	-0.596620449	0.12798447	-0.0872665
2.492	0.010636212	0.053871126	-0.133963362	1.13511075	0.98500432	-0.00864681	0.12757709	0.019115665	0	-0.415192493	0.007217557	0.301671148	0.004294514	0	-0.545976895	0.115561836	-0.0872665
2.5	0.010200124	0.055069211	-0.153707006	1.13839145	0.98594882	-0.00895577	0.125231613	0.014909988	0	-0.411098754	-0.001273686	0.288197992	0.006238543	0	-0.497303921	0.09444355	-0.0872665
2.508	0.009089623	0.056332195	-0.174207328	1.14129665	0.98634043	-0.00924147	0.126397601	0.010773903	0	-0.412374482	-0.004658637	0.277088802	0.008204455	0	-0.454484286	0.079126619	-0.0872665
2.517	0.007764418	0.057285773	-0.194718265	1.14423452	0.98653615	-0.0094611	0.127805184	0.007025302	0	-0.413937529	-0.006081111	0.267326815	0.009534052	0	-0.417375853	0.063570644	-0.0872665
2.525	0.006370199	0.058738877	-0.214062367	1.14705089	0.9866148	-0.00989518	0.129629401	0.002652182	0	-0.415577125	-0.004937636	0.258845274	0.011778732	0	-0.385302608	0.047860372	-0.0872665
2.533	0.004980532	0.059548535	-0.232312359	1.1496984	0.98652838	-0.01025397	0.131072917	-0.000857867	0	-0.41676063	-0.003920809	0.250342656	0.013152896	0	-0.35280835	0.023182859	-0.0872665
2.542	0.003263521	0.059500528	-0.250698835	1.15218076	0.98602813	-0.01050757	0.134085707	-0.003016565	0	-0.420470262	-0.001012586	0.243406969	0.012565822	0	-0.324718637	0.000179766	-0.0872665
